G04 (created by PCBNEW (2013-07-07 BZR 4022)-stable) date 3/8/2015 7:19:45 AM*
%MOIN*%
G04 Gerber Fmt 3.4, Leading zero omitted, Abs format*
%FSLAX34Y34*%
G01*
G70*
G90*
G04 APERTURE LIST*
%ADD10C,0.00590551*%
%ADD11R,0.0472X0.0276*%
%ADD12R,0.06X0.08*%
%ADD13R,0.035X0.055*%
%ADD14R,0.065X0.12*%
%ADD15R,0.24X0.24*%
%ADD16C,0.0787402*%
%ADD17C,0.011811*%
G04 APERTURE END LIST*
G54D10*
G54D11*
X12277Y-9699D03*
X10821Y-9699D03*
G54D12*
X11039Y-7461D03*
X12339Y-7461D03*
G54D13*
X11331Y-13622D03*
X12081Y-13622D03*
X11217Y-11730D03*
X11967Y-11730D03*
G54D14*
X17051Y-9010D03*
G54D15*
X16151Y-11510D03*
G54D14*
X15251Y-9010D03*
G54D16*
X7876Y-8298D03*
X7876Y-10298D03*
X7876Y-12298D03*
X7876Y-14298D03*
G54D17*
X11039Y-7461D02*
X11039Y-9481D01*
X11039Y-9481D02*
X10821Y-9699D01*
X7876Y-8298D02*
X9433Y-8298D01*
X11003Y-7497D02*
X11039Y-7461D01*
X10234Y-7497D02*
X11003Y-7497D01*
X9433Y-8298D02*
X10234Y-7497D01*
X7876Y-14298D02*
X10655Y-14298D01*
X10655Y-14298D02*
X11331Y-13622D01*
X7876Y-12298D02*
X7290Y-12298D01*
X15251Y-7649D02*
X15251Y-9010D01*
X13962Y-6360D02*
X15251Y-7649D01*
X8742Y-6360D02*
X13962Y-6360D01*
X6892Y-7980D02*
X8742Y-6360D01*
X6892Y-12030D02*
X6892Y-7980D01*
X7290Y-12298D02*
X6892Y-12030D01*
X12277Y-9699D02*
X14562Y-9699D01*
X14562Y-9699D02*
X15251Y-9010D01*
X11217Y-11730D02*
X11217Y-12471D01*
X15035Y-12626D02*
X16151Y-11510D01*
X11372Y-12626D02*
X15035Y-12626D01*
X11217Y-12471D02*
X11372Y-12626D01*
X7876Y-10298D02*
X9044Y-10298D01*
X10476Y-11730D02*
X11217Y-11730D01*
X9044Y-10298D02*
X10476Y-11730D01*
X12339Y-7461D02*
X12339Y-8016D01*
X11535Y-11298D02*
X11967Y-11730D01*
X11535Y-8820D02*
X11535Y-11298D01*
X12339Y-8016D02*
X11535Y-8820D01*
X12081Y-13622D02*
X12382Y-13622D01*
X18547Y-9010D02*
X17051Y-9010D01*
X18997Y-9460D02*
X18547Y-9010D01*
X18997Y-13707D02*
X18997Y-9460D01*
X18399Y-14305D02*
X18997Y-13707D01*
X13065Y-14305D02*
X18399Y-14305D01*
X12382Y-13622D02*
X13065Y-14305D01*
M02*
