G04 (created by PCBNEW (2013-07-07 BZR 4022)-stable) date 3/7/2015 7:05:22 AM*
%MOIN*%
G04 Gerber Fmt 3.4, Leading zero omitted, Abs format*
%FSLAX34Y34*%
G01*
G70*
G90*
G04 APERTURE LIST*
%ADD10C,0.00590551*%
%ADD11R,0.0472X0.0276*%
%ADD12R,0.06X0.08*%
%ADD13R,0.035X0.055*%
%ADD14R,0.065X0.12*%
%ADD15R,0.24X0.24*%
%ADD16C,0.1*%
%ADD17C,0.01*%
G04 APERTURE END LIST*
G54D10*
G54D11*
X10594Y-8149D03*
X9138Y-8149D03*
G54D12*
X9351Y-6769D03*
X10651Y-6769D03*
G54D13*
X9656Y-11194D03*
X10406Y-11194D03*
X9596Y-9739D03*
X10346Y-9739D03*
G54D14*
X13751Y-7159D03*
G54D15*
X12851Y-9659D03*
G54D14*
X11951Y-7159D03*
G54D16*
X7199Y-6904D03*
X7199Y-8282D03*
X7199Y-9659D03*
X7199Y-11037D03*
G54D17*
X9138Y-8149D02*
X9138Y-6982D01*
X9138Y-6982D02*
X9351Y-6769D01*
X9351Y-6769D02*
X7453Y-6769D01*
X7453Y-6769D02*
X7286Y-6936D01*
X9656Y-11194D02*
X7410Y-11194D01*
X7410Y-11194D02*
X7286Y-11069D01*
X6971Y-5929D02*
X7027Y-5929D01*
X6134Y-6457D02*
X6134Y-8816D01*
X11951Y-7159D02*
X11951Y-6349D01*
X6134Y-8816D02*
X7286Y-9691D01*
X6971Y-5929D02*
X6134Y-6419D01*
X11951Y-6349D02*
X11531Y-5929D01*
X6134Y-6419D02*
X6134Y-6457D01*
X7027Y-5929D02*
X11531Y-5929D01*
X10594Y-8149D02*
X11171Y-8149D01*
X11951Y-7369D02*
X11951Y-7159D01*
X11171Y-8149D02*
X11951Y-7369D01*
X12111Y-10399D02*
X9716Y-10399D01*
X9596Y-10279D02*
X9716Y-10399D01*
X9596Y-10279D02*
X9596Y-9739D01*
X12111Y-10399D02*
X12851Y-9659D01*
X12111Y-10399D02*
X12851Y-9659D01*
X9596Y-9739D02*
X9281Y-9739D01*
X9281Y-9739D02*
X7856Y-8314D01*
X7856Y-8314D02*
X7286Y-8314D01*
X9926Y-7714D02*
X9926Y-8764D01*
X10651Y-6989D02*
X9926Y-7714D01*
X9926Y-8764D02*
X10346Y-9184D01*
X10346Y-9739D02*
X10346Y-9184D01*
X10651Y-6989D02*
X10651Y-6769D01*
X10406Y-11194D02*
X10421Y-11194D01*
X14756Y-7159D02*
X13751Y-7159D01*
X14891Y-7294D02*
X14756Y-7159D01*
X14891Y-11209D02*
X14891Y-7294D01*
X14576Y-11524D02*
X14891Y-11209D01*
X10751Y-11524D02*
X14576Y-11524D01*
X10421Y-11194D02*
X10751Y-11524D01*
M02*
