G04 (created by PCBNEW (2013-07-07 BZR 4022)-stable) date 3/12/2015 5:21:04 AM*
%MOIN*%
G04 Gerber Fmt 3.4, Leading zero omitted, Abs format*
%FSLAX34Y34*%
G01*
G70*
G90*
G04 APERTURE LIST*
%ADD10C,0.00590551*%
%ADD11R,0.0472X0.0276*%
%ADD12R,0.06X0.08*%
%ADD13R,0.035X0.055*%
%ADD14R,0.055X0.035*%
%ADD15R,0.12X0.065*%
%ADD16R,0.24X0.24*%
%ADD17C,0.11811*%
%ADD18C,0.015748*%
G04 APERTURE END LIST*
G54D10*
G54D11*
X10963Y-14581D03*
X9507Y-14581D03*
G54D12*
X9442Y-13342D03*
X10742Y-13342D03*
G54D13*
X9651Y-8646D03*
X10401Y-8646D03*
G54D14*
X10630Y-10948D03*
X10630Y-11698D03*
G54D15*
X12532Y-9224D03*
G54D16*
X15032Y-10124D03*
G54D15*
X12532Y-11024D03*
G54D17*
X7800Y-8293D03*
X7800Y-10293D03*
X7800Y-12293D03*
X7800Y-14293D03*
G54D18*
X9507Y-14581D02*
X8159Y-14581D01*
X8159Y-14581D02*
X7876Y-14298D01*
X9507Y-14581D02*
X9507Y-13407D01*
X9507Y-13407D02*
X9442Y-13342D01*
X9651Y-8646D02*
X8224Y-8646D01*
X8224Y-8646D02*
X7876Y-8298D01*
X10577Y-15499D02*
X11344Y-15499D01*
X11801Y-14775D02*
X11801Y-14581D01*
X11344Y-15499D02*
X11801Y-14775D01*
X10963Y-14581D02*
X11801Y-14581D01*
X11801Y-14581D02*
X12903Y-14581D01*
X12903Y-14581D02*
X15032Y-12452D01*
X15032Y-12452D02*
X15032Y-10124D01*
X7876Y-10298D02*
X7541Y-10298D01*
X7638Y-15547D02*
X10577Y-15499D01*
X6712Y-14968D02*
X7638Y-15547D01*
X6664Y-10700D02*
X6712Y-14968D01*
X7541Y-10298D02*
X6664Y-10700D01*
X10630Y-10948D02*
X12456Y-10948D01*
X12456Y-10948D02*
X12532Y-11024D01*
X10630Y-10948D02*
X9226Y-10948D01*
X9226Y-10948D02*
X7876Y-12298D01*
X10630Y-11698D02*
X10630Y-13230D01*
X10630Y-13230D02*
X10742Y-13342D01*
X12532Y-9224D02*
X10979Y-9224D01*
X10979Y-9224D02*
X10401Y-8646D01*
M02*
